<?xml version="1.0" encoding="UTF-8"?>
<svg width="875.885" height="656.154" xmlns="http://www.w3.org/2000/svg" xmlns:svg="http://www.w3.org/2000/svg">
 <title>yellow sad fish</title>
 <metadata id="metadata6">image/svg+xmlrybaVaclavek DavidZS a MS Machovo nam.czrybafish</metadata>
 <g>
  <title>Layer 1</title>
  <rect id="svg_3" fill="#ffffff" stroke="#0000ff" stroke-linecap="round" stroke-linejoin="round" stroke-width="0" x="-4.88515" y="-24.1544" width="948" height="686"/>
  <g id="layer1">
   <path id="path10998" fill="#ffaa56" fill-rule="evenodd" stroke="#0000ff" stroke-linecap="round" stroke-linejoin="round" stroke-miterlimit="4" stroke-width="0" d="m383.09323,479.14539l0.2446,0.48272c-36.48962,76.63489 49.96497,110.49506 55.84781,112.69605l0.10882,0.21435c0.02698,-0.05487 0.0557,-0.10547 0.08182,-0.16034c0.09577,0.03516 0.38129,0.16034 0.38129,0.16034l9.35004,-37.60968c36.49133,-76.63574 -59.55964,-73.36813 -65.44333,-75.56909l-0.10883,-0.21435c-0.02609,0.05484 -0.05481,0.10546 -0.08182,0.16119c-0.09485,-0.03519 -0.3804,-0.16119 -0.3804,-0.16119z"/>
   <path id="rect2007" fill="#ffaa56" fill-rule="nonzero" stroke="#0000ff" stroke-dashoffset="0" stroke-linecap="round" stroke-linejoin="round" stroke-miterlimit="4" stroke-width="0" d="m758.47632,83.3969c28.31305,-25.0355 85.73468,-52.41233 118.95819,-55.08798c-57.71765,45.51057 -57.87518,73.07482 -63.81458,111.42014c-5.93945,38.34533 -27.66888,89.527 -25.44384,164.05692c2.03173,68.04791 27.98132,131.94592 33.56213,171.7908c5.57989,39.84497 2.24933,73.5791 54.90936,116.32037c-32.42608,-1.97546 -103.92114,-38.78088 -116.2196,-50.41253c-48.02368,-45.41815 -30.76605,-109.96005 -21.85303,-147.39655c15.40875,-64.72537 -21.84082,-38.49194 -33.95038,-84.24103c12.10956,-45.74993 48.63312,-22.51141 34.19593,-86.19249c-7.46021,-32.90416 -28.05976,-98.06597 19.65582,-140.25766l0,0l0,0l0,0.00001z"/>
   <path id="path7373" opacity="0.75" fill="#ffaa56" fill-rule="nonzero" stroke="#0000ff" stroke-dashoffset="0" stroke-linecap="round" stroke-linejoin="round" stroke-miterlimit="4" stroke-width="0" d="m758.76794,82.82757c28.31305,-25.0354 85.73383,-52.41223 118.95734,-55.08797c-57.71759,45.51064 -57.87518,73.07483 -63.81464,111.42014c-5.93939,38.34531 -27.66882,89.52613 -25.44299,164.05694c2.0318,68.04788 27.98139,131.94589 33.56128,171.78994c5.58081,39.84494 2.24939,73.57993 54.90942,116.3212c-32.42523,-1.97546 -103.92028,-38.78168 -116.21875,-50.41254c-48.02368,-45.41815 -30.76605,-109.96005 -21.85388,-147.3974c15.40961,-64.72537 -21.84088,-38.49105 -33.95038,-84.24102c12.1095,-45.74909 48.63312,-22.51056 34.19587,-86.19162c-7.45929,-32.90503 -28.05878,-98.06599 19.65673,-140.25767l0,0l0,0z"/>
   <path id="path23581" opacity="0.65" fill="#ffaa56" fill-rule="nonzero" stroke="#0000ff" stroke-dashoffset="0" stroke-linecap="round" stroke-linejoin="round" stroke-miterlimit="4" stroke-width="0" d="m408.05658,97.98667c27.78635,-12.67602 49.98236,-21.63207 73.89932,-28.1293c23.91703,-6.49732 55.26718,-13.61104 106.79032,-20.29536c-52.32831,40.47385 -49.96662,57.88537 -32.89704,89.96042c-9.58331,-4.62404 -33.79455,-17.15602 -58.58899,-23.06018c-30.2612,-7.20572 -45.10757,-6.22656 -69.0707,-6.39375c-23.96314,-0.16633 -40.67411,4.55117 -48.26139,7.00251c-6.9823,2.255 -3.4115,-3.60715 28.12848,-19.08434z"/>
   <path id="path2777" fill="#ffaa56" fill-rule="nonzero" stroke="#0000ff" stroke-dashoffset="0" stroke-linecap="round" stroke-linejoin="round" stroke-miterlimit="4" stroke-width="0" d="m287.43835,195.88632c0,25.73789 -21.18277,46.60308 -47.31343,46.60308c-26.13154,0 -47.31428,-20.86519 -47.31428,-46.60308c0,-25.73788 21.18274,-46.60222 47.31428,-46.60222c26.13066,0 47.31343,20.86434 47.31343,46.60222z"/>
   <path id="path1883" fill="#ffaa56" fill-rule="nonzero" stroke="#0000ff" stroke-dashoffset="0" stroke-linecap="round" stroke-linejoin="round" stroke-miterlimit="4" stroke-width="0" d="m505.14255,300.4635c0,49.27564 -19.32422,93.90924 -50.55515,126.22351c-31.23004,32.3151 -84.99038,51.93274 -107.32742,52.20456c-14.21701,0.17322 -135.96428,-28.78342 -167.19434,-61.09766c-35.80105,-30.15188 -50.15246,-52.99942 -54.52864,-84.54199c-1.71061,-19.72741 15.88367,-92.78261 52.27144,-124.26516c31.23006,-32.31511 126.64469,-87.05764 174.26627,-87.05764c47.62243,0 71.28265,19.99578 102.51269,52.3109c31.23093,32.31424 50.55515,76.94785 50.55515,126.22348z"/>
   <path id="path10986" fill="#ffaa56" fill-rule="nonzero" stroke="#0000ff" stroke-dashoffset="0" stroke-linecap="round" stroke-linejoin="round" stroke-miterlimit="4" stroke-width="0" d="m505.43072,298.89017c0,49.27563 -19.32513,93.90924 -50.55517,126.22433c-31.23096,32.31427 -84.99042,51.93195 -107.32746,52.20371c-14.21786,0.17322 -141.18727,-30.49826 -172.41819,-62.81247c-35.80062,-30.15103 -44.92911,-51.28461 -49.3052,-82.82718c-1.71062,-19.72739 15.88366,-92.78174 52.271,-124.26515c31.23006,-32.31513 126.64472,-87.05763 174.26715,-87.05763c47.62155,0 71.28174,19.99577 102.5127,52.31088c31.23004,32.31425 50.55517,76.94786 50.55517,126.22351z"/>
   <path id="path1874" fill="#ffaa56" fill-rule="nonzero" stroke="#0000ff" stroke-dashoffset="0" stroke-linecap="round" stroke-linejoin="round" stroke-miterlimit="4" stroke-width="0" d="m430.41275,108.11703c-29.83029,0 -58.31827,4.87355 -84.43765,13.67062c84.03549,28.30499 143.46713,97.54382 143.46713,178.4495c0,80.90567 -59.43164,150.17197 -143.46713,178.47696c26.11938,8.79703 54.60736,13.67059 84.43765,13.67059c62.90146,0 119.87741,-21.52371 161.12784,-56.30386c20.62561,-17.39011 55.64581,-59.80728 101.50201,-80.81821c45.8562,-21.01095 62.50708,-20.61654 62.50708,-47.12954c0,-26.51297 -21.05731,-27.53931 -66.91357,-52.4961c-45.85614,-24.95591 -76.46991,-73.8423 -97.09552,-91.22981c-41.25043,-34.77332 -98.22638,-56.29015 -161.12784,-56.29015z"/>
   <g id="g9179" transform="matrix(0.8705,0,0,0.857415,56.1197,-5.86944) ">
    <path id="path1886" fill="#ffaa56" fill-rule="nonzero" stroke="#0000ff" stroke-dashoffset="0" stroke-linecap="round" stroke-linejoin="round" stroke-miterlimit="4" stroke-width="0" d="m287.73077,227.30701c0.012,30.02701 -24.32598,54.37399 -54.35202,54.37399c-30.02699,0 -54.36499,-24.34699 -54.35299,-54.37399c-0.012,-30.026 24.326,-54.373 54.35299,-54.373c30.02604,0 54.36402,24.347 54.35202,54.373z"/>
    <path id="path2775" fill="#ffaa56" fill-rule="nonzero" stroke="#0000ff" stroke-dashoffset="0" stroke-linecap="round" stroke-linejoin="round" stroke-miterlimit="4" stroke-width="0" d="m263.94577,246.914c0.00601,8.69901 -7.38602,15.75299 -16.50801,15.75299c-9.121,0 -16.51401,-7.05398 -16.508,-15.75299c-0.00601,-8.698 7.387,-15.752 16.508,-15.752c9.12199,0 16.51402,7.054 16.50801,15.752z"/>
    <path id="path6337" fill="#ffaa56" fill-rule="evenodd" marker-start="none" stroke="#0000ff" stroke-linecap="round" stroke-linejoin="round" stroke-miterlimit="4" stroke-width="0" d="m303.34778,282.233c100.449,203.237 -219.74881,122.89899 -219.74881,122.89899"/>
    <path id="path9184" fill="#ffaa56" fill-rule="evenodd" stroke="#0000ff" stroke-linecap="round" stroke-linejoin="round" stroke-miterlimit="4" stroke-width="0" d="m289.00476,290.04098c26.26102,-13.69998 26.26102,-13.69998 26.26102,-13.69998"/>
   </g>
   <path id="path17237" fill="#ffaa56" fill-rule="nonzero" stroke="#0000ff" stroke-dashoffset="0" stroke-linecap="round" stroke-linejoin="round" stroke-miterlimit="4" stroke-width="0" d="m430.41275,108.11703c-29.83029,0 -58.31827,4.87355 -84.43765,13.67062c84.03549,28.30499 143.46713,97.54382 143.46713,178.4495c0,80.90567 -59.43164,150.17197 -143.46713,178.47696c26.11938,8.79703 54.60736,13.67059 84.43765,13.67059c62.90146,0 119.87741,-21.52371 161.12784,-56.30386c20.62561,-17.39011 55.64581,-59.80728 101.50201,-80.81821c45.8562,-21.01095 62.50708,-20.61654 62.50708,-47.12954c0,-26.51297 -21.05731,-27.53931 -66.91357,-52.4961c-45.85614,-24.95591 -76.46991,-73.8423 -97.09552,-91.22981c-41.25043,-34.77332 -98.22638,-56.29015 -161.12784,-56.29015z"/>
   <path id="path27156" fill="#ffaa56" fill-rule="evenodd" stroke="#0000ff" stroke-linecap="round" stroke-linejoin="round" stroke-miterlimit="4" stroke-width="0" d="m462.37924,76.05331c-38.97055,15.80027 -25.74765,31.53727 -25.74765,31.53727"/>
   <path id="path28946" fill="#ffaa56" fill-rule="evenodd" stroke="#0000ff" stroke-linecap="round" stroke-linejoin="round" stroke-miterlimit="4" stroke-width="0" d="m528.09674,59.26624c-71.63168,21.5747 -54.6134,51.00119 -54.6134,51.00119"/>
   <path id="path28948" fill="#ffaa56" fill-rule="evenodd" stroke="#0000ff" stroke-linecap="round" stroke-linejoin="round" stroke-miterlimit="4" stroke-width="0" d="m586.41333,50.40554c-92.52548,25.50741 -77.02008,68.96077 -77.02008,68.96077"/>
   <path id="path5587" fill="#ffaa56" fill-rule="nonzero" stroke="#0000ff" stroke-dashoffset="0" stroke-linecap="round" stroke-linejoin="round" stroke-miterlimit="4" stroke-width="0" d="m430.41275,108.11703c-29.83029,0 -58.31827,4.87355 -84.43765,13.67062c84.03549,28.30499 143.46713,97.54382 143.46713,178.4495c0,80.90567 -59.43164,150.17197 -143.46713,178.47696c26.11938,8.79703 54.60736,13.67059 84.43765,13.67059c62.90146,0 119.87741,-21.52371 161.12784,-56.30386c20.62561,-17.39011 55.64581,-59.80728 101.50201,-80.81821c45.8562,-21.01095 62.50708,-20.61654 62.50708,-47.12954c0,-26.51297 -21.05731,-27.53931 -66.91357,-52.4961c-45.85614,-24.95591 -76.46991,-73.8423 -97.09552,-91.22981c-41.25043,-34.77332 -98.22638,-56.29015 -161.12784,-56.29015z"/>
   <g id="g10976" opacity="0.85" transform="matrix(0.8705,0,0,0.857415,56.1197,-5.86944) ">
    <path id="path9185" fill="#ffaa56" fill-rule="nonzero" stroke="#0000ff" stroke-dashoffset="0" stroke-linecap="round" stroke-linejoin="round" stroke-miterlimit="4" stroke-width="0" d="m562.47272,732.19702c-33.58496,62.11298 -109.38196,-9.40503 -127.87595,-40.65601c-20.99799,-33.27801 -34.91501,-77.19 18,-160.63104c7.392,-9.69299 -4.55399,-27.64398 33.60401,-24.31198c24.73599,2.16001 3.66699,34.48398 19.95001,51.97403c18.01394,16.73499 37.72494,44.57001 50.11593,69.01697c14.30201,28.216 23.13202,72.16101 6.206,104.60803z"/>
    <path id="path10081" fill="#ffaa56" fill-rule="nonzero" stroke="#0000ff" stroke-dashoffset="0" stroke-linecap="round" stroke-linejoin="round" stroke-miterlimit="4" stroke-width="0" d="m562.47272,732.19702c-33.58496,62.11298 -109.38196,-9.40503 -127.87595,-40.65601c-20.99799,-33.27801 -34.91501,-77.19 18,-160.63104c7.392,-9.69299 -4.55399,-27.64398 33.60401,-24.31198c24.73599,2.16001 3.66699,34.48398 19.95001,51.97403c18.01394,16.73499 37.72494,44.57001 50.11593,69.01697c14.30201,28.216 23.13202,72.16101 6.206,104.60803z"/>
   </g>
  </g>
  <circle id="svg_1" fill="#ffffff" stroke="#000000" stroke-width="5" cx="250.115" cy="195.846" r="53.7129"/>
  <circle id="svg_2" fill="#000000" stroke="#000000" stroke-width="5" cx="227.115" cy="197.846" r="15.2969"/>
  <line stroke="#000000" id="svg_4" y2="324.846008" x2="287.114993" y1="344.846008" x1="127.11499" stroke-linecap="null" stroke-linejoin="null" stroke-dasharray="null" stroke-width="5" fill="none"/>
 </g>
</svg>